<svg xmlns="http://www.w3.org/2000/svg" width="1180" height="430" viewBox="0 0 1180 430">
<rect width="100%" height="100%" fill="#fffdfa" rx="24"/>
<text x="48" y="48" font-family="Inter, Arial, sans-serif" font-size="28" font-weight="700" fill="#162033">Accessibility score vs violation gap</text>
<text x="48" y="72" font-family="Inter, Arial, sans-serif" font-size="14" fill="#5b6475">All sampled pages scored 100 in Lighthouse, but axe still found critical and serious violations.</text>
<text x="120" y="350" font-family="Inter, Arial, sans-serif" font-size="13" fill="#162033">/docs</text>
<rect x="120" y="160.0" width="46" height="160.0" rx="10" fill="#1e3a5f" opacity="0.9"/>
<rect x="178" y="300" width="46" height="20" rx="10" fill="#be123c" opacity="0.9"/>
<text x="124" y="148.0" font-family="JetBrains Mono, monospace" font-size="12" fill="#162033">100</text>
<text x="182" y="288" font-family="JetBrains Mono, monospace" font-size="12" fill="#162033">2</text>
<text x="350" y="350" font-family="Inter, Arial, sans-serif" font-size="13" fill="#162033">/issues</text>
<rect x="350" y="160.0" width="46" height="160.0" rx="10" fill="#1e3a5f" opacity="0.9"/>
<rect x="408" y="320" width="46" height="0" rx="10" fill="#be123c" opacity="0.9"/>
<text x="354" y="148.0" font-family="JetBrains Mono, monospace" font-size="12" fill="#162033">100</text>
<text x="412" y="308" font-family="JetBrains Mono, monospace" font-size="12" fill="#162033">0</text>
<text x="580" y="350" font-family="Inter, Arial, sans-serif" font-size="13" fill="#162033">/my-week</text>
<rect x="580" y="160.0" width="46" height="160.0" rx="10" fill="#1e3a5f" opacity="0.9"/>
<rect x="638" y="140" width="46" height="180" rx="10" fill="#be123c" opacity="0.9"/>
<text x="584" y="148.0" font-family="JetBrains Mono, monospace" font-size="12" fill="#162033">100</text>
<text x="642" y="128" font-family="JetBrains Mono, monospace" font-size="12" fill="#162033">18</text>
<text x="810" y="350" font-family="Inter, Arial, sans-serif" font-size="13" fill="#162033">/documents/:id</text>
<rect x="810" y="160.0" width="46" height="160.0" rx="10" fill="#1e3a5f" opacity="0.9"/>
<rect x="868" y="300" width="46" height="20" rx="10" fill="#be123c" opacity="0.9"/>
<text x="814" y="148.0" font-family="JetBrains Mono, monospace" font-size="12" fill="#162033">100</text>
<text x="872" y="288" font-family="JetBrains Mono, monospace" font-size="12" fill="#162033">2</text>
<rect x="48" y="380" width="12" height="12" rx="3" fill="#1e3a5f"/><text x="68" y="390" font-family="Inter, Arial, sans-serif" font-size="13" fill="#5b6475">Lighthouse accessibility score</text>
<rect x="280" y="380" width="12" height="12" rx="3" fill="#be123c"/><text x="300" y="390" font-family="Inter, Arial, sans-serif" font-size="13" fill="#5b6475">Critical + Serious axe findings</text>
</svg>