<svg xmlns="http://www.w3.org/2000/svg" width="1100" height="420" viewBox="0 0 1100 420">
<defs><linearGradient id="grad" x1="0" x2="1"><stop offset="0%" stop-color="#1e3a5f"/><stop offset="100%" stop-color="#d4a73a"/></linearGradient></defs>
<rect width="100%" height="100%" fill="#fffdfa" rx="24"/>
<text x="48" y="48" font-family="Inter, Arial, sans-serif" font-size="28" font-weight="700" fill="#162033">Database flow query counts</text>
<text x="48" y="72" font-family="Inter, Arial, sans-serif" font-size="14" fill="#5b6475">Total SQL statements emitted per representative user flow with PostgreSQL query logging enabled.</text>
<text x="48" y="114" font-family="Inter, Arial, sans-serif" font-size="15" fill="#162033">Load main page</text>
<rect x="280" y="98" width="700" height="18" rx="9" fill="#edf0f4"/>
<rect x="280" y="98" width="560.0" height="18" rx="9" fill="url(#grad)"/>
<text x="996" y="113" font-family="JetBrains Mono, monospace" font-size="13" fill="#162033">4</text>
<text x="48" y="172" font-family="Inter, Arial, sans-serif" font-size="15" fill="#162033">View a document</text>
<rect x="280" y="156" width="700" height="18" rx="9" fill="#edf0f4"/>
<rect x="280" y="156" width="560.0" height="18" rx="9" fill="url(#grad)"/>
<text x="996" y="171" font-family="JetBrains Mono, monospace" font-size="13" fill="#162033">4</text>
<text x="48" y="230" font-family="Inter, Arial, sans-serif" font-size="15" fill="#162033">List issues</text>
<rect x="280" y="214" width="700" height="18" rx="9" fill="#edf0f4"/>
<rect x="280" y="214" width="700.0" height="18" rx="9" fill="url(#grad)"/>
<text x="996" y="229" font-family="JetBrains Mono, monospace" font-size="13" fill="#162033">5</text>
<text x="48" y="288" font-family="Inter, Arial, sans-serif" font-size="15" fill="#162033">Load sprint board</text>
<rect x="280" y="272" width="700" height="18" rx="9" fill="#edf0f4"/>
<rect x="280" y="272" width="700.0" height="18" rx="9" fill="url(#grad)"/>
<text x="996" y="287" font-family="JetBrains Mono, monospace" font-size="13" fill="#162033">5</text>
<text x="48" y="346" font-family="Inter, Arial, sans-serif" font-size="15" fill="#162033">Search content</text>
<rect x="280" y="330" width="700" height="18" rx="9" fill="#edf0f4"/>
<rect x="280" y="330" width="560.0" height="18" rx="9" fill="url(#grad)"/>
<text x="996" y="345" font-family="JetBrains Mono, monospace" font-size="13" fill="#162033">4</text>
</svg>